<?xml version="1.0" standalone="no"?><!DOCTYPE svg PUBLIC "-//W3C//DTD SVG 1.1//EN" "http://www.w3.org/Graphics/SVG/1.1/DTD/svg11.dtd"><svg t="1745751975245" class="icon" viewBox="0 0 1024 1024" version="1.1" xmlns="http://www.w3.org/2000/svg" p-id="24048" xmlns:xlink="http://www.w3.org/1999/xlink" width="200" height="200"><path d="M522.828 121.94m-73.412 0a73.412 73.412 0 1 0 146.824 0 73.412 73.412 0 1 0-146.824 0Z" fill="#FEF8A6" p-id="24049"></path><path d="M522.832 213.356c-50.408 0-91.416-41.008-91.416-91.416 0-50.404 41.008-91.412 91.416-91.412 50.404 0 91.412 41.008 91.412 91.412s-41.008 91.416-91.412 91.416z m0-146.828c-30.556 0-55.416 24.856-55.416 55.412 0 30.556 24.86 55.416 55.416 55.416 30.56 0 55.412-24.86 55.412-55.416 0-30.556-24.852-55.412-55.412-55.412z" fill="#4A4A4A" p-id="24050"></path><path d="M215.02 936.54c204.448 46.472 408.896 46.64 613.34 0.516 0 0 66.556-10.068 92.488-92.492 46.156-162.384 46.612-324.752 1.372-487.14 0 0-13.82-69.664-98.348-98.356-202.948-45.12-405.9-44.612-608.848 1.516-71.44 19.916-91.588 96.84-91.588 96.84-45.24 162.376-44.788 324.752 1.368 487.132 0 0.008 24.76 75.524 90.216 91.984z" fill="#B4B7C9" p-id="24051"></path><path d="M522.82 989.52c-0.004 0 0.004 0 0 0-103.464 0-208.364-11.916-311.788-35.424l-0.4-0.092c-74.228-18.668-101.792-100.36-102.928-103.828l-0.212-0.688c-46.856-164.852-47.328-332.032-1.396-496.884 0.856-3.276 23.62-86.912 104.092-109.348l0.844-0.216c103.432-23.508 208.332-35.428 311.792-35.428 101.192 0 203.792 11.404 304.956 33.892l1.88 0.524c89.268 30.304 108.02 102.08 110.04 111.076 45.792 164.688 45.276 331.7-1.536 496.384l-0.14 0.48c-27.72 88.084-97.384 103.188-106.16 104.752-102.512 23.088-206.504 34.8-309.044 34.8z m-303.596-70.48c100.744 22.884 202.884 34.48 303.596 34.48 100.04 0 201.504-11.448 301.584-34.028l1.264-0.244c2.14-0.36 55.884-10.124 77.928-79.86 44.96-158.312 45.388-318.836 1.272-477.14l-0.312-1.332c-0.008-0.036-3.344-15.276-15.696-33.26-16.196-23.584-39.7-40.82-69.876-51.244-98.288-21.776-197.92-32.82-296.172-32.82-100.628 0-202.696 11.584-303.372 34.432-59.96 16.996-78.44 83.332-78.62 84.004-44.148 158.452-43.74 318.908 1.16 477.148 1.56 4.408 24.284 66.408 77.244 79.864z" fill="#4A4A4A" p-id="24052"></path><path d="M522.828 598m-286 0a286 286 0 1 0 572 0 286 286 0 1 0-572 0Z" fill="#89DBC7" p-id="24053"></path><path d="M365.484 572.968h91.36v36h-91.36zM590.616 572.968h91.364v36h-91.364z" fill="#4A4A4A" p-id="24054"></path><path d="M522.828 902c-167.628 0-304-136.376-304-304 0-167.628 136.372-304 304-304 167.624 0 304 136.372 304 304 0 167.624-136.376 304-304 304z m0-572c-147.776 0-268 120.224-268 268 0 147.772 120.224 268 268 268 147.772 0 268-120.228 268-268 0-147.776-120.228-268-268-268z" fill="#4A4A4A" p-id="24055"></path></svg>